<?xml version="1.0" standalone="no"?>
<!DOCTYPE svg PUBLIC "-//W3C//DTD SVG 20010904//EN"
 "http://www.w3.org/TR/2001/REC-SVG-20010904/DTD/svg10.dtd">
<svg version="1.0" xmlns="http://www.w3.org/2000/svg"
 width="700.000000pt" height="700.000000pt" viewBox="0 0 700.000000 700.000000"
 preserveAspectRatio="xMidYMid meet">
<metadata>
Created by potrace 1.11, written by Peter Selinger 2001-2013
</metadata>
<g transform="translate(0.000000,700.000000) scale(0.100000,-0.100000)"
fill="#000000" stroke="none">
<path d="M3280 6994 c-19 -2 -84 -9 -145 -14 -582 -56 -1196 -289 -1674 -638
-820 -597 -1332 -1477 -1443 -2477 -17 -154 -17 -585 0 -730 99 -840 454
-1568 1044 -2140 281 -274 569 -475 920 -644 195 -94 298 -135 489 -195 671
-207 1387 -207 2058 0 191 60 294 101 489 195 351 169 639 370 920 644 829
804 1202 1947 1011 3093 -212 1272 -1138 2342 -2372 2741 -224 73 -426 117
-672 147 -113 14 -549 27 -625 18z m595 -429 c586 -76 1098 -292 1555 -655
131 -104 371 -343 475 -475 174 -217 347 -510 451 -760 301 -728 307 -1572 17
-2305 -107 -272 -286 -579 -472 -810 -107 -133 -326 -352 -456 -456 -199 -160
-382 -275 -617 -389 -971 -468 -2128 -388 -3026 209 -189 126 -323 235 -487
400 -491 492 -786 1095 -881 1801 -24 178 -24 570 -1 745 81 594 296 1106 657
1560 108 136 346 374 480 480 506 402 1077 622 1745 674 101 8 443 -4 560 -19z"/>
<path d="M1765 4303 c-73 -38 -114 -105 -115 -185 0 -60 13 -95 53 -136 52
-54 81 -64 215 -73 385 -25 680 -157 948 -424 267 -266 400 -562 424 -941 8
-139 17 -169 67 -218 99 -100 275 -66 331 64 31 72 9 353 -43 547 -199 746
-810 1278 -1575 1373 -127 15 -269 12 -305 -7z"/>
<path d="M4960 4314 c-14 -2 -59 -9 -100 -15 -41 -5 -124 -23 -185 -39 -323
-85 -600 -246 -839 -489 l-79 -80 25 -38 c38 -58 111 -199 148 -284 l33 -77
57 72 c77 96 219 230 311 293 155 106 366 195 541 228 45 8 139 19 208 24 133
9 165 19 214 68 73 72 75 204 3 282 -43 46 -93 61 -207 59 -58 0 -116 -2 -130
-4z"/>
</g>
</svg>
